<?xml version="1.0" encoding="UTF-8" standalone="no" ?>
<!DOCTYPE svg PUBLIC "-//W3C//DTD SVG 1.1//EN" "http://www.w3.org/Graphics/SVG/1.1/DTD/svg11.dtd">
<svg xmlns="http://www.w3.org/2000/svg" xmlns:xlink="http://www.w3.org/1999/xlink" version="1.1" width="150" height="150" viewBox="0 0 150 150" xml:space="preserve">
<desc>Created with Fabric.js 4.2.0</desc>
<defs>
</defs>
<g transform="matrix(1 0 0 1 75 75)" id="20267943-c97a-446c-901c-3da7c355997c"  >
<rect style="stroke: none; stroke-width: 1; stroke-dasharray: none; stroke-linecap: butt; stroke-dashoffset: 0; stroke-linejoin: miter; stroke-miterlimit: 4; fill: rgb(255,255,255); fill-opacity: 0; fill-rule: nonzero; opacity: 1;" vector-effect="non-scaling-stroke"  x="-75" y="-75" rx="0" ry="0" width="150" height="150" />
</g>
<g transform="matrix(0 0 0 0 0 0)" id="2dd635a7-c469-43f6-a719-92324bc61dde"  >
</g>
<g transform="matrix(0.9 0 0 0.9 75 75)"  >
<g style="" vector-effect="non-scaling-stroke"   >
		<g transform="matrix(0.84 0 0 0.84 -0.21 -0.32)"  >
<path style="stroke: none; stroke-width: 1; stroke-dasharray: none; stroke-linecap: butt; stroke-dashoffset: 0; stroke-linejoin: miter; stroke-miterlimit: 4; fill: rgb(255,255,255); fill-rule: nonzero; opacity: 1;" vector-effect="non-scaling-stroke"  transform=" translate(-100, -100)" d="M 150.61 58.867 L 140.318 53.120999999999995 C 136.9261629133761 51.21126753968446 132.80667001000916 51.11343426873098 129.328 52.85999999999999 C 128.369 53.294999999999995 127.409 53.81799999999999 126.45 54.33999999999999 C 126.45 54.33999999999999 126.363 54.33999999999999 126.363 54.42699999999999 C 117.466 59.388999999999996 107.261 66.35399999999998 103.511 69.05199999999999 C 103.249 68.61699999999999 102.988 68.181 102.55199999999999 67.833 C 103.42399999999999 65.30799999999999 105.08099999999999 60.259 107.175 54.601 C 107.33064554470646 54.77323958056297 107.55394809612967 54.868627413494984 107.786 54.862 L 119.474 54.775 C 119.9549742313436 54.77445031697236 120.34489842511044 54.38497328397818 120.346 53.903999999999996 C 120.346 53.468999999999994 119.91 53.032999999999994 119.474 53.032999999999994 L 107.699 53.032999999999994 C 108.135 51.81399999999999 108.571 50.68299999999999 109.007 49.46399999999999 L 121.91600000000001 49.46399999999999 C 122.3969742313436 49.463450316972356 122.78689842511045 49.07397328397817 122.78800000000001 48.59299999999999 C 122.7863510864745 48.11225453283512 122.39674704272211 47.72309728271089 121.91600000000001 47.72199999999999 L 109.61800000000001 47.72199999999999 C 110.05400000000002 46.58999999999999 110.49000000000001 45.371999999999986 111.01400000000001 44.23999999999999 L 125.84200000000001 44.152999999999984 C 126.32297423134361 44.15245031697235 126.71289842511045 43.76297328397816 126.71400000000001 43.28199999999998 C 126.71400000000001 42.759999999999984 126.36500000000001 42.41099999999998 125.84200000000001 42.41099999999998 L 111.71200000000002 42.41099999999998 C 112.06100000000002 41.62799999999998 112.32300000000002 40.84399999999998 112.67100000000002 40.06099999999998 C 112.84500000000003 40.23499999999998 113.02000000000002 40.40899999999998 113.36900000000001 40.40899999999998 L 128.45800000000003 40.23499999999998 C 128.93897423134362 40.23445031697235 129.32889842511048 39.84497328397816 129.33000000000004 39.363999999999976 C 129.32835108647453 38.883254532835096 128.93874704272213 38.49409728271086 128.45800000000003 38.492999999999974 L 113.36900000000003 38.66699999999997 L 113.28200000000002 38.66699999999997 L 114.32900000000002 36.31699999999997 C 114.59100000000002 35.79499999999997 114.85200000000002 35.35899999999997 115.11400000000002 34.92399999999997 C 115.20100000000002 34.92399999999997 115.28800000000003 35.010999999999974 115.46300000000002 35.010999999999974 L 129.68000000000004 35.010999999999974 C 130.20300000000003 35.010999999999974 130.55200000000005 34.662999999999975 130.55200000000005 34.13999999999997 C 130.55200000000005 33.617999999999974 130.20300000000006 33.26899999999997 129.68000000000004 33.26899999999997 L 116.51000000000003 33.26899999999997 C 117.90600000000003 31.96299999999997 119.73700000000004 31.005999999999972 121.74300000000004 30.74399999999997 L 133.34300000000005 28.915999999999972 C 133.77900000000005 28.828999999999972 134.12800000000004 28.393999999999973 134.04100000000005 27.957999999999974 C 133.95400000000006 27.521999999999974 133.51800000000006 27.174999999999972 133.08200000000005 27.261999999999972 L 121.48200000000006 29.08999999999997 C 117.64400000000006 29.69899999999997 114.33000000000006 32.13699999999997 112.67300000000006 35.705999999999975 C 111.61308643511562 38.03781460468507 110.59525472386396 40.388529113704294 109.62000000000012 42.75699999999992 C 109.44759225735882 42.9117615321353 109.35180895779821 43.13440286584677 109.35800000000006 43.36599999999998 L 109.35800000000006 43.45299999999998 C 105.69500000000006 52.41999999999998 102.20600000000006 62.77899999999998 100.81000000000006 66.95799999999998 L 100.72300000000006 66.95799999999998 L 100.72300000000006 23.871 C 100.72300000000006 23.349 100.37400000000005 23 99.85100000000006 23 C 99.32800000000006 23 98.97900000000006 23.348 98.97900000000006 23.871 L 98.97900000000006 66.963 L 98.89200000000005 66.963 C 97.49600000000005 62.78399999999999 93.92000000000006 52.51199999999999 90.34400000000005 43.458 L 90.34400000000005 43.370999999999995 C 90.34400000000005 43.10999999999999 90.25700000000005 42.849 90.08200000000005 42.76199999999999 C 89.03500000000005 40.236999999999995 88.07600000000005 37.88699999999999 87.02900000000005 35.71099999999999 C 85.37200000000006 32.14199999999999 82.05700000000006 29.703999999999994 78.22000000000006 29.09499999999999 L 66.62000000000006 27.266999999999992 C 66.18400000000005 27.179999999999993 65.66100000000006 27.52799999999999 65.66100000000006 27.962999999999994 C 65.57400000000005 28.397999999999993 65.92300000000006 28.920999999999992 66.35900000000005 28.920999999999992 L 77.95900000000005 30.74899999999999 C 80.05200000000005 31.09699999999999 81.88400000000004 32.05499999999999 83.36700000000005 33.44799999999999 L 70.02200000000005 33.273999999999994 C 69.49900000000005 33.273999999999994 69.15000000000005 33.62199999999999 69.15000000000005 34.144999999999996 C 69.15000000000005 34.666999999999994 69.49900000000005 35.016 70.02200000000005 35.016 L 84.23900000000005 35.19 C 84.41300000000005 35.19 84.50100000000005 35.102999999999994 84.67500000000005 35.102999999999994 L 85.46000000000005 36.40899999999999 C 85.80900000000005 37.19199999999999 86.15800000000004 37.88899999999999 86.50700000000005 38.75899999999999 L 86.42000000000004 38.75899999999999 L 71.33100000000005 38.584999999999994 C 70.85002576865645 38.58554968302763 70.4601015748896 38.975026716021816 70.45900000000005 39.455999999999996 C 70.45900000000005 39.977999999999994 70.80800000000005 40.327 71.33100000000005 40.327 L 86.42000000000004 40.501 C 86.68200000000004 40.501 86.94300000000004 40.327 87.11800000000004 40.153 C 87.46700000000004 40.936 87.72900000000004 41.72 88.07700000000004 42.503 L 73.94700000000005 42.503 C 73.51100000000004 42.503 73.07500000000005 42.851 73.07500000000005 43.374 C 73.07500000000005 43.897000000000006 73.42400000000005 44.245000000000005 73.94700000000005 44.245000000000005 L 88.77500000000005 44.33200000000001 C 89.21739434675607 45.50173230399949 89.68281820166348 46.662624755853095 90.17100000000006 47.814000000000064 L 77.867 47.81400000000001 C 77.34400000000001 47.81400000000001 76.995 48.162000000000006 76.995 48.68500000000001 C 76.995 49.20800000000001 77.34400000000001 49.55600000000001 77.867 49.55600000000001 L 90.77600000000001 49.55600000000001 C 91.21200000000002 50.77500000000001 91.64800000000001 51.994000000000014 92.08400000000002 53.125000000000014 L 91.99700000000001 53.125000000000014 L 80.31000000000002 53.03400000000001 C 79.87400000000001 53.03400000000001 79.43800000000002 53.38200000000001 79.43800000000002 53.905000000000015 C 79.43800000000002 54.42800000000002 79.78700000000002 54.77600000000002 80.31000000000002 54.77600000000002 L 92.25900000000001 54.77600000000002 C 92.49102613684792 54.78249176811665 92.71427426602064 54.68712718265989 92.87000000000002 54.515000000000015 C 94.96300000000002 60.174000000000014 96.70800000000001 65.31000000000002 97.49300000000002 67.74700000000001 C 97.05700000000002 68.09500000000001 96.79500000000003 68.53000000000002 96.53400000000002 68.96600000000001 C 92.78300000000002 66.35400000000001 82.57900000000002 59.30300000000001 73.59500000000003 54.34100000000001 C 73.59500000000003 54.34100000000001 73.50800000000002 54.34100000000001 73.50800000000002 54.254000000000005 C 72.54900000000002 53.732000000000006 71.58900000000003 53.209 70.63000000000002 52.77400000000001 C 69.84500000000003 52.339000000000006 69.06000000000003 52.07800000000001 68.18800000000002 51.903000000000006 L 68.01400000000001 51.903000000000006 C 65.22300000000001 51.20700000000001 62.17000000000001 51.642 59.64100000000001 53.12200000000001 L 49.436000000000014 58.86800000000001 C 49.000000000000014 59.12900000000001 48.91300000000001 59.65100000000001 49.08700000000002 60.08700000000001 C 49.34900000000002 60.52200000000001 49.872000000000014 60.69600000000001 50.30800000000002 60.43500000000001 L 60.6 54.689 C 62.257000000000005 53.731 64.089 53.383 65.921 53.47 L 55.45400000000001 61.653 C 55.10500000000001 61.914 55.01800000000001 62.524 55.28000000000001 62.872 C 55.45400000000001 63.133 55.71600000000001 63.22 55.97800000000001 63.22 C 56.15200000000001 63.22 56.327000000000005 63.132999999999996 56.50100000000001 63.046 L 68.18900000000001 53.905 C 68.80000000000001 54.079 69.32300000000001 54.253 69.933 54.601 C 70.456 54.862 71.06700000000001 55.21 71.59 55.472 L 59.641000000000005 64.43900000000001 C 59.29200000000001 64.7 59.205000000000005 65.31 59.467000000000006 65.658 C 59.641000000000005 65.919 59.903000000000006 66.006 60.165000000000006 66.006 C 60.339000000000006 66.006 60.514 65.919 60.68800000000001 65.832 L 73.16100000000002 56.25599999999999 C 74.16826991679059 56.80404225517882 75.15745892160004 57.38468219360542 76.12699999999998 57.99699999999999 L 65.13700000000001 66.615 C 64.78800000000001 66.87599999999999 64.70100000000001 67.48599999999999 64.96300000000001 67.83399999999999 C 65.13700000000001 68.09499999999998 65.39900000000002 68.18199999999999 65.661 68.18199999999999 C 65.83500000000001 68.18199999999999 66.01 68.09499999999998 66.184 68.00799999999998 L 77.697 58.95399999999998 C 78.656 59.56299999999998 79.616 60.17299999999998 80.575 60.69499999999998 L 70.45700000000001 68.61699999999998 C 70.108 68.87799999999997 70.021 69.48799999999997 70.283 69.83599999999997 C 70.45700000000001 70.09699999999997 70.71900000000001 70.18399999999997 70.981 70.18399999999997 C 71.155 70.18399999999997 71.33 70.09699999999997 71.50399999999999 70.00999999999996 L 82.05799999999999 61.73999999999997 L 82.145 61.65299999999996 L 85.023 63.480999999999966 L 76.039 70.44499999999996 C 75.70674952185288 70.68163039927894 75.59568667764928 71.12461006413685 75.777 71.48999999999997 C 72.899 71.66399999999997 70.108 71.83799999999997 67.404 72.09899999999996 L 67.317 72.09899999999996 C 66.18299999999999 72.18599999999996 65.136 72.35999999999996 64.08999999999999 72.44699999999996 C 60.25199999999999 72.96899999999997 56.85099999999999 75.31999999999996 55.10599999999999 78.80199999999996 L 49.87299999999999 89.42299999999996 C 49.69899999999999 89.85799999999996 49.87299999999999 90.38099999999996 50.22199999999999 90.55499999999996 C 50.30899999999999 90.64199999999997 50.48399999999999 90.64199999999997 50.570999999999984 90.64199999999997 C 50.91999999999998 90.64199999999997 51.18199999999998 90.46799999999996 51.35599999999998 90.11999999999996 L 56.58899999999998 79.49899999999997 C 57.42973683823144 77.80946144156555 58.729806671142 76.39120344202676 60.339999999999975 75.40699999999997 L 56.41499999999998 88.20399999999997 C 56.24099999999998 88.63899999999997 56.50199999999998 89.16199999999996 56.93799999999998 89.33599999999997 C 57.024999999999984 89.33599999999997 57.11199999999998 89.42299999999997 57.19999999999998 89.42299999999997 C 57.56688123654363 89.41404743818126 57.88514048842747 89.16714312684717 57.98499999999998 88.81399999999998 L 62.69499999999998 74.62399999999998 C 63.21799999999998 74.44999999999997 63.82899999999998 74.27599999999998 64.35199999999998 74.27599999999998 L 66.18399999999997 74.01499999999999 L 61.47399999999997 88.29199999999999 C 61.29999999999997 88.72699999999999 61.56099999999997 89.24999999999999 61.99699999999997 89.42399999999999 C 62.083999999999975 89.42399999999999 62.17099999999997 89.511 62.25899999999997 89.511 C 62.62588123654362 89.50204743818128 62.94414048842746 89.25514312684719 63.04399999999997 88.902 L 68.01599999999996 73.842 L 71.41799999999996 73.581 L 67.144 86.9 C 66.97 87.33500000000001 67.23100000000001 87.858 67.667 88.03200000000001 L 67.929 88.03200000000001 C 68.278 88.03200000000001 68.627 87.77100000000002 68.801 87.42300000000002 L 73.337 73.40700000000001 C 74.471 73.32000000000001 75.605 73.233 76.739 73.233 L 72.988 85.421 C 72.814 85.85600000000001 73.075 86.379 73.511 86.55300000000001 L 73.773 86.55300000000001 C 74.13988123654364 86.5440474381813 74.45814048842749 86.2971431268472 74.55799999999999 85.94400000000002 L 78.657 73.14700000000002 L 78.657 72.97300000000001 C 79.35499999999999 72.97300000000001 80.14 72.88600000000001 80.838 72.88600000000001 L 80.75099999999999 73.06000000000002 C 80.40199999999999 73.32100000000001 80.31499999999998 73.93100000000001 80.57699999999998 74.27900000000001 C 80.75099999999999 74.54 81.01299999999999 74.62700000000001 81.27499999999998 74.62700000000001 C 81.36199999999998 74.62700000000001 81.53699999999998 74.62700000000001 81.62399999999998 74.54 L 78.57099999999998 83.768 C 78.39699999999998 84.203 78.65799999999999 84.726 79.09399999999998 84.9 C 79.18099999999998 84.9 79.26799999999999 84.98700000000001 79.35599999999998 84.98700000000001 C 79.72288123654363 84.97804743818129 80.04114048842747 84.7311431268472 80.14099999999998 84.37800000000001 L 83.80399999999997 73.23500000000001 C 83.80399999999997 73.14800000000001 83.89099999999998 72.97400000000002 83.80399999999997 72.88700000000001 C 85.02499999999998 72.88700000000001 86.15899999999998 72.80000000000001 87.20599999999997 72.80000000000001 L 83.71699999999997 83.50800000000001 C 83.54299999999996 83.94300000000001 83.80399999999997 84.46600000000001 84.23999999999997 84.64000000000001 C 84.32699999999997 84.64000000000001 84.41399999999997 84.72700000000002 84.50199999999997 84.72700000000002 C 84.86888123654361 84.7180474381813 85.18714048842746 84.47114312684721 85.28699999999996 84.11800000000002 L 88.86299999999996 73.32300000000002 C 88.94999999999996 73.14900000000002 88.86299999999996 72.97500000000002 88.86299999999996 72.88800000000002 C 93.22399999999996 72.80100000000002 96.27699999999996 72.80100000000002 96.36399999999996 72.80100000000002 L 96.45099999999996 72.80100000000002 C 96.45099999999996 72.88800000000002 96.53799999999997 72.97500000000002 96.53799999999997 72.97500000000002 C 96.45099999999996 73.14900000000003 96.36399999999996 73.32300000000002 96.36399999999996 73.49700000000003 L 96.36399999999996 108.75400000000002 C 95.66599999999997 108.49300000000002 95.14299999999996 108.14500000000002 94.53199999999997 107.70900000000002 C 93.04899999999996 106.83800000000002 91.47899999999997 105.79400000000001 88.33899999999997 105.79400000000001 C 85.19899999999997 105.79400000000001 83.54199999999997 106.83900000000001 82.14599999999997 107.70900000000002 C 80.74999999999997 108.58000000000001 79.44199999999998 109.36300000000001 76.82499999999997 109.36300000000001 C 74.20799999999997 109.36300000000001 72.89999999999998 108.58000000000001 71.50399999999998 107.70900000000002 C 70.02099999999997 106.83800000000002 68.45099999999998 105.79400000000001 65.31099999999998 105.79400000000001 C 62.17099999999998 105.79400000000001 60.51399999999998 106.83900000000001 59.11799999999998 107.70900000000002 C 57.72199999999998 108.58000000000001 56.41399999999998 109.36300000000001 53.79699999999998 109.36300000000001 C 53.27399999999998 109.36300000000001 52.92499999999998 109.71100000000001 52.92499999999998 110.23400000000001 C 52.92499999999998 110.75600000000001 53.27399999999998 111.105 53.79699999999998 111.105 C 56.93699999999998 111.105 58.59399999999998 110.06 59.98999999999998 109.19 C 61.38599999999998 108.319 62.69399999999998 107.536 65.31099999999998 107.536 C 67.92799999999998 107.536 69.23599999999998 108.319 70.63199999999998 109.19 C 72.11499999999998 110.06099999999999 73.77199999999998 111.105 76.82499999999997 111.105 C 79.87799999999997 111.105 81.62199999999997 110.06 83.01799999999997 109.19 C 84.41399999999997 108.319 85.72199999999997 107.536 88.33899999999997 107.536 C 90.95599999999997 107.536 92.26399999999997 108.319 93.65999999999997 109.19 C 94.44499999999996 109.712 95.31699999999996 110.235 96.45099999999996 110.583 L 96.45099999999996 116.67699999999999 C 95.75299999999997 116.416 95.22999999999996 116.068 94.61899999999997 115.63199999999999 C 93.13599999999997 114.761 91.56599999999997 113.71699999999998 88.42599999999997 113.71699999999998 C 85.28599999999997 113.71699999999998 83.62899999999998 114.76199999999999 82.23299999999998 115.63199999999999 C 80.83699999999997 116.50299999999999 79.52899999999998 117.28599999999999 76.91199999999998 117.28599999999999 C 74.29499999999997 117.28599999999999 72.98699999999998 116.50299999999999 71.59099999999998 115.63199999999999 C 70.10799999999998 114.761 68.53799999999998 113.71699999999998 65.39799999999998 113.71699999999998 C 62.25799999999998 113.71699999999998 60.600999999999985 114.76199999999999 59.204999999999984 115.63199999999999 C 57.80899999999998 116.50299999999999 56.50099999999998 117.28599999999999 53.883999999999986 117.28599999999999 C 53.36099999999998 117.28599999999999 53.011999999999986 117.63399999999999 53.011999999999986 118.15699999999998 C 53.011999999999986 118.67899999999999 53.36099999999998 119.02799999999998 53.883999999999986 119.02799999999998 C 57.02399999999999 119.02799999999998 58.68099999999998 117.98299999999998 60.076999999999984 117.11299999999997 C 61.472999999999985 116.24199999999998 62.780999999999985 115.45899999999997 65.39799999999998 115.45899999999997 C 68.01499999999999 115.45899999999997 69.32299999999998 116.24199999999998 70.71899999999998 117.11299999999997 C 72.20199999999998 117.98399999999997 73.85899999999998 119.02799999999998 76.91199999999998 119.02799999999998 C 79.96499999999997 119.02799999999998 81.70899999999997 117.98299999999998 83.10499999999998 117.11299999999997 C 84.50099999999998 116.24199999999998 85.80899999999997 115.45899999999997 88.42599999999997 115.45899999999997 C 91.04299999999998 115.45899999999997 92.35099999999997 116.24199999999998 93.74699999999997 117.11299999999997 C 94.53199999999997 117.63499999999998 95.40399999999997 118.15799999999997 96.53799999999997 118.50599999999997 L 96.53799999999997 123.20699999999997 L 54.056 123.20699999999997 L 54.056 124.07799999999996 C 54.056 143.83899999999997 66.441 160.72799999999995 83.886 167.34399999999997 C 83.79899999999999 167.51799999999997 83.71199999999999 167.69199999999998 83.71199999999999 167.86599999999996 L 83.71199999999999 177 L 116.50699999999999 177 L 116.50699999999999 167.946 C 116.50699999999999 167.772 116.41999999999999 167.511 116.33299999999998 167.424 C 133.69 160.808 146.16299999999998 143.919 146.16299999999998 124.15800000000002 L 146.16299999999998 123.28700000000002 L 103.51199999999997 123.28700000000002 L 103.51199999999997 118.58600000000003 C 104.64599999999997 118.23800000000003 105.51799999999997 117.71500000000003 106.30299999999997 117.19300000000003 C 107.69899999999997 116.32200000000003 109.00699999999996 115.53900000000003 111.62399999999997 115.53900000000003 C 114.24099999999997 115.53900000000003 115.54899999999996 116.32300000000004 116.94499999999996 117.19300000000003 C 118.42799999999997 118.06400000000002 120.08499999999997 119.10800000000003 123.13799999999996 119.10800000000003 C 126.19099999999996 119.10800000000003 127.93499999999996 118.06300000000003 129.33099999999996 117.19300000000003 C 130.72699999999995 116.32200000000003 132.03499999999997 115.53900000000003 134.65199999999996 115.53900000000003 C 137.26899999999995 115.53900000000003 138.57699999999997 116.32300000000004 139.97299999999996 117.19300000000003 C 141.45599999999996 118.06400000000002 143.11299999999994 119.10800000000003 146.16599999999997 119.10800000000003 C 146.68899999999996 119.10800000000003 147.03799999999998 118.76000000000003 147.03799999999998 118.23700000000004 C 147.03799999999998 117.71500000000003 146.689 117.36600000000004 146.16599999999997 117.36600000000004 C 143.54899999999998 117.36600000000004 142.24099999999996 116.58200000000004 140.84499999999997 115.71200000000005 C 139.36199999999997 114.84100000000005 137.79199999999997 113.79700000000004 134.65199999999996 113.79700000000004 C 131.51199999999994 113.79700000000004 129.85499999999996 114.84200000000004 128.45899999999995 115.71200000000005 C 127.06299999999995 116.58300000000004 125.75499999999995 117.36600000000004 123.13799999999995 117.36600000000004 C 120.52099999999994 117.36600000000004 119.21299999999995 116.58200000000004 117.81699999999995 115.71200000000005 C 116.33399999999995 114.84100000000005 114.76399999999995 113.79700000000004 111.62399999999995 113.79700000000004 C 108.48399999999995 113.79700000000004 106.82699999999996 114.84200000000004 105.43099999999995 115.71200000000005 C 104.81999999999995 116.06000000000004 104.29699999999995 116.40800000000004 103.59899999999996 116.75700000000005 L 103.59899999999996 110.66300000000005 C 104.73299999999996 110.31500000000005 105.60499999999996 109.79200000000006 106.38999999999996 109.27000000000005 C 107.78599999999996 108.39900000000006 109.09399999999995 107.61600000000006 111.71099999999996 107.61600000000006 C 114.32799999999996 107.61600000000006 115.63599999999995 108.39900000000006 117.03199999999995 109.27000000000005 C 118.51499999999996 110.14100000000005 120.17199999999995 111.18500000000006 123.22499999999995 111.18500000000006 C 126.36499999999995 111.18500000000006 128.02199999999996 110.14000000000006 129.41799999999995 109.27000000000005 C 130.81399999999994 108.39900000000006 132.12199999999996 107.61600000000006 134.73899999999995 107.61600000000006 C 137.35599999999994 107.61600000000006 138.66399999999996 108.39900000000006 140.05999999999995 109.27000000000005 C 141.54299999999995 110.14100000000005 143.19999999999993 111.18500000000006 146.25299999999996 111.18500000000006 C 146.77599999999995 111.18500000000006 147.12499999999997 110.83700000000006 147.12499999999997 110.31400000000006 C 147.12499999999997 109.79200000000006 146.77599999999998 109.44300000000007 146.25299999999996 109.44300000000007 C 143.63599999999997 109.44300000000007 142.32799999999995 108.66000000000007 140.93199999999996 107.78900000000007 C 139.44899999999996 106.91800000000008 137.87899999999996 105.87400000000007 134.73899999999995 105.87400000000007 C 131.59899999999996 105.87400000000007 129.94199999999995 106.91900000000007 128.54599999999994 107.78900000000007 C 127.14999999999993 108.66000000000007 125.84199999999994 109.44300000000007 123.22499999999994 109.44300000000007 C 120.60799999999993 109.44300000000007 119.29999999999994 108.66000000000007 117.90399999999994 107.78900000000007 C 116.42099999999994 106.91800000000008 114.85099999999994 105.87400000000007 111.71099999999994 105.87400000000007 C 108.57099999999994 105.87400000000007 106.91399999999994 106.91900000000007 105.51799999999994 107.78900000000007 C 104.90699999999994 108.13700000000007 104.38399999999994 108.48500000000007 103.68599999999995 108.83400000000007 L 103.68599999999995 72.621 C 103.77299999999995 72.621 106.73899999999995 72.621 111.18699999999995 72.708 C 111.18699999999995 72.882 111.09999999999995 73.056 111.18699999999995 73.143 L 114.76299999999995 83.938 C 114.86285951157245 84.29114312684719 115.1811187634563 84.53804743818128 115.54799999999994 84.547 C 115.63499999999995 84.547 115.72199999999995 84.547 115.80999999999995 84.46 C 116.24599999999995 84.28599999999999 116.50799999999994 83.851 116.33299999999994 83.32799999999999 L 112.84399999999994 72.61999999999999 C 113.89099999999993 72.61999999999999 115.11199999999994 72.707 116.24599999999994 72.707 L 116.24599999999994 73.05499999999999 L 119.90899999999993 84.198 C 120.00885951157244 84.55114312684718 120.32711876345628 84.79804743818127 120.69399999999993 84.80699999999999 C 120.78099999999993 84.80699999999999 120.86799999999994 84.80699999999999 120.95599999999993 84.71999999999998 C 121.39199999999994 84.54599999999998 121.65399999999993 84.11099999999999 121.47899999999993 83.58799999999998 L 118.42599999999993 74.35999999999999 C 118.51299999999993 74.44699999999999 118.68799999999993 74.44699999999999 118.77499999999993 74.44699999999999 C 119.03699999999994 74.44699999999999 119.29799999999993 74.35999999999999 119.47299999999993 74.09899999999999 C 119.73499999999993 73.75099999999999 119.73499999999993 73.14099999999999 119.29899999999992 72.88 L 119.12499999999991 72.70599999999999 C 119.82299999999991 72.70599999999999 120.60799999999992 72.79299999999999 121.30599999999991 72.79299999999999 L 121.30599999999991 72.967 L 125.40499999999992 85.764 C 125.50485951157242 86.11714312684718 125.82311876345626 86.36404743818127 126.18999999999991 86.37299999999999 L 126.45199999999991 86.37299999999999 C 126.88799999999992 86.19899999999998 127.1499999999999 85.764 126.97499999999991 85.24099999999999 L 123.13699999999992 73.05299999999998 C 124.27099999999992 73.13999999999999 125.40499999999992 73.13999999999999 126.53899999999992 73.22699999999999 L 131.0749999999999 87.243 C 131.1748595115724 87.59614312684718 131.49311876345627 87.84304743818127 131.8599999999999 87.85199999999999 L 132.1219999999999 87.85199999999999 C 132.5579999999999 87.67799999999998 132.8199999999999 87.243 132.6449999999999 86.71999999999998 L 128.3709999999999 73.40099999999998 C 129.50499999999988 73.48799999999999 130.72599999999989 73.57499999999999 131.77299999999988 73.66199999999998 L 136.7449999999999 88.72199999999998 C 136.8448595115724 89.07514312684717 137.16311876345625 89.32204743818126 137.5299999999999 89.33099999999997 C 137.61699999999988 89.33099999999997 137.7039999999999 89.33099999999997 137.7919999999999 89.24399999999997 C 138.2279999999999 89.06999999999996 138.4899999999999 88.63499999999998 138.31499999999988 88.11199999999997 L 133.6919999999999 73.92199999999997 L 135.5239999999999 74.18299999999996 C 136.13499999999988 74.26999999999997 136.65799999999987 74.44399999999996 137.2679999999999 74.61799999999997 L 141.89099999999988 88.80799999999996 C 141.99085951157238 89.16114312684715 142.30911876345624 89.40804743818124 142.67599999999987 89.41699999999996 C 142.76299999999986 89.41699999999996 142.84999999999988 89.41699999999996 142.93799999999987 89.32999999999996 C 143.37399999999988 89.15599999999995 143.63599999999988 88.72099999999996 143.46099999999987 88.19799999999995 L 139.27399999999986 75.48799999999994 C 140.84399999999985 76.44599999999994 142.15199999999987 77.83799999999994 143.02499999999986 79.57999999999994 L 148.25799999999987 90.20099999999994 C 148.43199999999987 90.54899999999994 148.69399999999987 90.72299999999994 149.04299999999986 90.72299999999994 C 149.12999999999985 90.72299999999994 149.30499999999986 90.72299999999994 149.39199999999985 90.63599999999994 C 149.82799999999986 90.46199999999993 150.00299999999984 89.93999999999994 149.74099999999984 89.50399999999993 L 144.50799999999984 78.88299999999994 C 143.19999999999985 76.27099999999994 141.01899999999983 74.26899999999993 138.31499999999983 73.22399999999993 C 138.14099999999982 73.04999999999993 137.79199999999983 72.96299999999994 137.52999999999983 72.96299999999994 C 136.91899999999984 72.78899999999993 136.22199999999984 72.61499999999994 135.52399999999983 72.52799999999993 C 134.47699999999983 72.35399999999993 133.43099999999984 72.26699999999994 132.29699999999983 72.17999999999994 L 132.20999999999984 72.17999999999994 C 129.50599999999983 71.91899999999994 126.62799999999984 71.74499999999993 123.83699999999983 71.57099999999994 C 124.01786993268264 71.20556233841985 123.90688205018544 70.76288166204746 123.57499999999983 70.52599999999994 L 114.59099999999984 63.56199999999994 L 117.46899999999984 61.73399999999994 C 117.46899999999984 61.73399999999994 117.46899999999984 61.82099999999994 117.55599999999984 61.82099999999994 L 128.10999999999984 70.09099999999994 C 128.28399999999985 70.17799999999994 128.45899999999983 70.26499999999994 128.63299999999984 70.26499999999994 C 128.89499999999984 70.26499999999994 129.15599999999984 70.17799999999994 129.33099999999985 69.91699999999994 C 129.59299999999985 69.56899999999995 129.59299999999985 68.95899999999995 129.15699999999984 68.69799999999995 L 119.03899999999985 60.775999999999954 C 119.99799999999985 60.16699999999995 120.95799999999984 59.55699999999995 121.91699999999985 59.034999999999954 L 133.69199999999984 67.82799999999995 C 133.86599999999984 67.91499999999995 134.04099999999983 68.00199999999995 134.21499999999983 68.00199999999995 C 134.47699999999983 68.00199999999995 134.73799999999983 67.91499999999995 134.91299999999984 67.65399999999995 C 135.17499999999984 67.30599999999995 135.17499999999984 66.69599999999996 134.73899999999983 66.43499999999996 L 123.74899999999984 57.81699999999996 C 124.79599999999984 57.207999999999956 125.75499999999984 56.68499999999996 126.71499999999983 56.07599999999996 L 139.18799999999985 65.65199999999996 C 139.36199999999985 65.73899999999996 139.53699999999984 65.82599999999996 139.71099999999984 65.82599999999996 C 139.97299999999984 65.82599999999996 140.23399999999984 65.73899999999996 140.40899999999985 65.47799999999997 C 140.67099999999985 65.12999999999997 140.67099999999985 64.51999999999997 140.23499999999984 64.25899999999997 L 128.37299999999985 55.117999999999974 C 128.89599999999984 54.85699999999997 129.50699999999983 54.50899999999997 130.02999999999986 54.24699999999997 C 130.64099999999985 53.98599999999997 131.16399999999985 53.72499999999997 131.77399999999986 53.55099999999997 C 131.77399999999986 53.55099999999997 131.77399999999986 53.63799999999998 131.86099999999985 53.63799999999998 L 143.46099999999984 62.778999999999975 C 143.63499999999985 62.86599999999998 143.80999999999983 62.952999999999975 143.98399999999984 62.952999999999975 C 144.24599999999984 62.952999999999975 144.50699999999983 62.86599999999997 144.68199999999985 62.604999999999976 C 144.94399999999985 62.25699999999998 144.94399999999985 61.64699999999998 144.50799999999984 61.385999999999974 L 134.04099999999983 53.202999999999975 C 135.86444080411897 53.118212388331486 137.67573385732828 53.54014363844846 139.27399999999983 54.421999999999976 L 149.56599999999983 60.16799999999998 C 150.00199999999984 60.42899999999998 150.52499999999984 60.25499999999998 150.78699999999984 59.81999999999998 C 151.13399999999984 59.64999999999998 151.04599999999982 59.12799999999998 150.60999999999984 58.866999999999976 z M 101.76600000000002 101.088 L 98.27700000000002 101.088 L 98.27700000000002 96.3 L 101.67900000000002 96.3 L 101.67900000000002 101.088 L 101.76600000000002 101.088 z M 98.27700000000002 74.18799999999999 C 98.80000000000001 74.44899999999998 99.41100000000002 74.62299999999999 100.02100000000002 74.62299999999999 C 100.63200000000002 74.62299999999999 101.24200000000002 74.44899999999998 101.76500000000001 74.18799999999999 L 101.76500000000001 76.36399999999999 L 98.27600000000001 76.36399999999999 L 98.27600000000001 74.18799999999999 z M 101.76600000000002 94.64599999999999 L 98.27700000000002 94.64599999999999 L 98.27700000000002 88.55199999999999 L 101.67900000000002 88.55199999999999 L 101.67900000000002 94.64599999999999 L 101.76600000000002 94.64599999999999 z M 101.76600000000002 86.81099999999999 L 98.27700000000002 86.81099999999999 L 98.27700000000002 83.329 L 101.67900000000002 83.329 L 101.67900000000002 86.81099999999999 L 101.76600000000002 86.81099999999999 z M 101.76600000000002 81.588 L 98.27700000000002 81.588 L 98.27700000000002 78.106 L 101.67900000000002 78.106 L 101.67900000000002 81.588 L 101.76600000000002 81.588 z M 77.78 71.315 L 86.502 64.612 L 86.676 64.43799999999999 C 87.635 65.04699999999998 88.595 65.74399999999999 89.554 66.353 L 83.361 71.14099999999999 C 81.531 71.14099999999999 79.699 71.228 77.78 71.315 z M 86.241 71.054 L 90.777 67.572 L 90.95100000000001 67.398 C 93.30600000000001 68.96499999999999 95.05000000000001 70.271 96.09700000000001 70.967 L 96.09700000000001 71.054 C 94.96300000000001 70.88 91.12500000000001 70.88 86.24100000000001 71.054 z M 114.675 167.946 L 114.675 175.346 L 85.368 175.346 L 85.368 167.946 C 89.991 169.513 94.875 170.384 100.021 170.384 C 105.168 170.384 110.052 169.51299999999998 114.675 167.946 z M 100.02199999999999 168.643 C 75.94899999999998 168.643 56.236999999999995 149.143 55.800999999999995 125.029 L 144.331 125.029 C 143.807 149.142 124.09499999999998 168.643 100.02199999999999 168.643 z M 101.76599999999999 123.287 L 98.27699999999999 123.287 L 98.27699999999999 119.021 C 98.79999999999998 119.108 99.32399999999998 119.108 100.02099999999999 119.108 C 100.63199999999999 119.108 101.24199999999999 119.021 101.76499999999999 119.021 L 101.76499999999999 123.287 z M 101.76599999999999 117.19300000000001 C 101.243 117.28000000000002 100.719 117.36700000000002 100.02199999999999 117.36700000000002 C 99.324 117.36700000000002 98.80099999999999 117.28000000000002 98.27799999999999 117.19300000000001 L 98.27799999999999 110.92500000000001 C 98.80099999999999 111.01200000000001 99.32499999999999 111.01200000000001 100.02199999999999 111.01200000000001 C 100.633 111.01200000000001 101.243 110.92500000000001 101.76599999999999 110.92500000000001 L 101.76599999999999 117.19300000000001 z M 100.02199999999999 109.35800000000002 C 99.41099999999999 109.35800000000002 98.80099999999999 109.27100000000002 98.27799999999999 109.18400000000001 L 98.27799999999999 102.82900000000001 L 101.67999999999999 102.82900000000001 L 101.67999999999999 109.18400000000001 C 101.243 109.35800000000002 100.63199999999999 109.35800000000002 100.02199999999999 109.35800000000002 z M 103.859 70.88000000000002 C 104.90599999999999 70.09700000000002 106.737 68.79100000000003 109.005 67.22400000000002 C 109.092 67.31100000000002 109.092 67.39800000000002 109.179 67.39800000000002 L 113.715 70.88000000000002 L 103.85900000000001 70.88000000000002 z M 113.541 64.61200000000002 L 122.26299999999999 71.31500000000003 C 120.344 71.22800000000002 118.51199999999999 71.14100000000002 116.76799999999999 71.14100000000002 L 110.57499999999999 66.35300000000002 C 111.44699999999999 65.74400000000003 112.40699999999998 65.13400000000003 113.45299999999999 64.43800000000002 C 113.36699999999999 64.43800000000002 113.454 64.52500000000002 113.54099999999998 64.61200000000002 z" stroke-linecap="round" />
</g>
		<g transform="matrix(0.84 0 0 0.84 9.8 -34.54)"  >
<path style="stroke: none; stroke-width: 1; stroke-dasharray: none; stroke-linecap: butt; stroke-dashoffset: 0; stroke-linejoin: miter; stroke-miterlimit: 4; fill: rgb(255,255,255); fill-rule: nonzero; opacity: 1;" vector-effect="non-scaling-stroke"  transform=" translate(-111.64, -59.08)" d="M 116.855 58.17 L 106.476 58.257000000000005 C 105.9950257686564 58.25754968302764 105.60510157488956 58.64702671602183 105.604 59.12800000000001 C 105.604 59.56300000000001 106.04 59.99900000000001 106.476 59.99900000000001 L 116.855 59.912000000000006 C 117.31982802257731 59.88971960733143 117.68525074850967 59.50636169424503 117.68525074850967 59.04100000000001 C 117.68525074850967 58.575638305754985 117.31982802257731 58.192280392668586 116.855 58.17000000000001 z" stroke-linecap="round" />
</g>
		<g transform="matrix(0.84 0 0 0.84 -9.84 -34.54)"  >
<path style="stroke: none; stroke-width: 1; stroke-dasharray: none; stroke-linecap: butt; stroke-dashoffset: 0; stroke-linejoin: miter; stroke-miterlimit: 4; fill: rgb(255,255,255); fill-rule: nonzero; opacity: 1;" vector-effect="non-scaling-stroke"  transform=" translate(-88.38, -59.08)" d="M 93.567 59.998 C 94.08999999999999 59.998 94.439 59.65 94.439 59.126999999999995 C 94.439 58.60399999999999 94.08999999999999 58.25599999999999 93.567 58.25599999999999 L 83.18799999999999 58.169999999999995 C 82.75199999999998 58.169999999999995 82.31599999999999 58.517999999999994 82.31599999999999 59.041 C 82.31599999999999 59.564 82.66499999999999 59.912 83.18799999999999 59.912 L 93.567 59.998 z" stroke-linecap="round" />
</g>
</g>
</g>
</svg>